g android_iceyellow
v 0.3 1.3000001 -0.2
v 0.3 0.7 -0.2
v -0.3 0.7 -0.2
v -0.3 1.3000001 -0.2
v 0.1 0.7 -0.1
v 0.1 0 -0.1
v -0.1 0 -0.1
v -0.1 0.7 -0.1
v -0.3 1.3000001 0.2
v -0.3 0.7 0.2
v 0.3 0.7 0.2
v 0.3 1.3000001 0.2
v -0.1 0.7 0.1
v -0.1 0 0.1
v 0.1 0 0.1
v 0.1 0.7 0.1
v -0.1 0.7 -0.2
v -0.1 0.7 0.2
v 0.1 0.7 0.2
v 0.1 0.7 -0.2
v -0.3 0.7 -0.2
v -0.3 1.3000001 -0.2
v -0.3 1.3000001 0.2
v -0.3 0.7 0.2
v -0.1 0 -0.1
v -0.1 0.7 -0.1
v -0.1 0.7 0.1
v -0.1 0 0.1
v 0.3 0.7 0.2
v 0.3 1.3000001 0.2
v 0.3 1.3000001 -0.2
v 0.3 0.7 -0.2
v 0.1 0 0.1
v 0.1 0.7 0.1
v 0.1 0.7 -0.1
v 0.1 0 -0.1
v -0.3 1.3000001 -0.2
v 0.3 1.3000001 -0.2
v -0.3 1.3000001 0.2
v 0.3 1.3000001 0.2
v -0.1 0.7 0.2
v -0.3 0.7 -0.2
v -0.3 0.7 0.2
v -0.1 0.7 -0.2
v -0.1 0.7 0.1
v -0.1 0.7 -0.1
v 0.3 0.7 0.2
v 0.1 0.7 0.1
v 0.1 0.7 0.2
v 0.1 0.7 -0.1
v 0.3 0.7 -0.2
v 0.1 0.7 -0.2
v -0.1 0 0.1
v 0.1 0 0.1
v -0.1 0 -0.1
v 0.1 0 -0.1
v -0.1 0.7 -0.1
v 0.1 0.7 -0.1
v -0.1 0.7 -0.2
v 0.1 0.7 -0.2
v -0.1 0.7 0.2
v 0.1 0.7 0.2
v -0.1 0.7 0.1
v 0.1 0.7 0.1
v -0.3 0.7 -0.2
v 0.3 0.7 -0.2
v 0.3 0.7 0.2
v -0.3 0.7 0.2
v -0.1 0.7 -0.2
v -0.1 0.7 0.2
vt 0.007813 0.234375
vt 0.007813 0.1875
vt 0.054688 0.1875
vt 0.054688 0.234375
vt 0.039063 0.171875
vt 0.039063 0.117188
vt 0.054688 0.117188
vt 0.054688 0.171875
vt 0.070313 0.234375
vt 0.070313 0.1875
vt 0.117188 0.1875
vt 0.117188 0.234375
vt 0.070313 0.171875
vt 0.070313 0.117188
vt 0.085938 0.117188
vt 0.085938 0.171875
vt 0.039063 0.1875
vt 0.085938 0.1875
vt 0.101563 0.1875
vt 0.023438 0.1875
vt 0.367188 0.1875
vt 0.367188 0.234375
vt 0.398438 0.234375
vt 0.398438 0.1875
vt 0.507813 0.117188
vt 0.507813 0.171875
vt 0.523438 0.171875
vt 0.523438 0.117188
vt 0.320313 0.1875
vt 0.320313 0.234375
vt 0.351563 0.234375
vt 0.351563 0.1875
vt 0.601563 0.117188
vt 0.601563 0.171875
vt 0.617188 0.171875
vt 0.617188 0.117188
vt 0.304688 0.34375
vt 0.351563 0.34375
vt 0.304688 0.3125
vt 0.351563 0.3125
vt 0.304688 0.390625
vt 0.289063 0.359375
vt 0.289063 0.390625
vt 0.304688 0.359375
vt 0.304688 0.382813
vt 0.304688 0.367188
vt 0.335938 0.390625
vt 0.320313 0.382813
vt 0.320313 0.390625
vt 0.320313 0.367188
vt 0.335938 0.359375
vt 0.320313 0.359375
vt 0.039063 0.632813
vt 0.054688 0.632813
vt 0.039063 0.617188
vt 0.054688 0.617188
vt 0.554688 0.757813
vt 0.570313 0.757813
vt 0.554688 0.75
vt 0.570313 0.75
vt 0.398438 0.757813
vt 0.414063 0.757813
vt 0.398438 0.75
vt 0.414063 0.75
vt 0.054688 0.1875
vt 0.007813 0.1875
vt 0.117188 0.1875
vt 0.070313 0.1875
vt 0.304688 0.359375
vt 0.304688 0.390625
vn -0 0 -1
vn -0 0 -1
vn -0 0 -1
vn -0 0 -1
vn -0 0 -1
vn -0 0 -1
vn -0 0 -1
vn -0 0 -1
vn -0 0 1
vn -0 0 1
vn -0 0 1
vn -0 0 1
vn -0 0 1
vn -0 0 1
vn -0 0 1
vn -0 0 1
vn -0 1 0
vn -0 1 0
vn -0 1 0
vn -0 1 0
vn -1 0 0
vn -1 0 0
vn -1 0 0
vn -1 0 0
vn -1 0 0
vn -1 0 0
vn -1 0 0
vn -1 0 0
vn 1 0 0
vn 1 0 0
vn 1 0 0
vn 1 0 0
vn 1 0 0
vn 1 0 0
vn 1 0 0
vn 1 0 0
vn -0 1 0
vn -0 1 0
vn -0 1 0
vn -0 1 0
vn -0 -1 0
vn -0 -1 0
vn -0 -1 0
vn -0 -1 0
vn -0 1 0
vn -0 1 0
vn -0 -1 0
vn -0 -1 0
vn -0 -1 0
vn -0 -1 0
vn -0 -1 0
vn -0 -1 0
vn -0 -1 0
vn -0 -1 0
vn -0 -1 0
vn -0 -1 0
vn -0 -1 0
vn -0 -1 0
vn -0 -1 0
vn -0 -1 0
vn -0 -1 0
vn -0 -1 0
vn -0 -1 0
vn -0 -1 0
vn -0 1 0
vn -0 1 0
vn -0 1 0
vn -0 1 0
vn -0 1 0
vn -0 1 0
g android_iceyellow_0
f 1/1/1 2/2/2 4/4/4
f 3/3/3 4/4/4 2/2/2
f 66/66/66 20/20/20 65/65/65
f 17/17/17 65/65/65 20/20/20
f 8/8/8 5/5/5 6/6/6
f 7/7/7 8/8/8 6/6/6
f 9/9/9 10/10/10 12/12/12
f 11/11/11 12/12/12 10/10/10
f 68/68/68 18/18/18 67/67/67
f 19/19/19 67/67/67 18/18/18
f 16/16/16 13/13/13 14/14/14
f 15/15/15 16/16/16 14/14/14
f 23/23/23 22/22/22 21/21/21
f 24/24/24 23/23/23 21/21/21
f 27/27/27 26/26/26 25/25/25
f 28/28/28 27/27/27 25/25/25
f 31/31/31 30/30/30 29/29/29
f 32/32/32 31/31/31 29/29/29
f 35/35/35 34/34/34 33/33/33
f 36/36/36 35/35/35 33/33/33
f 39/39/39 38/38/38 37/37/37
f 40/40/40 38/38/38 39/39/39
f 43/43/43 42/42/42 41/41/41
f 44/44/44 41/41/41 42/42/42
f 70/70/70 69/69/69 45/45/45
f 46/46/46 45/45/45 69/69/69
f 49/49/49 48/48/48 47/47/47
f 50/50/50 47/47/47 48/48/48
f 47/47/47 50/50/50 51/51/51
f 52/52/52 51/51/51 50/50/50
f 55/55/55 54/54/54 53/53/53
f 56/56/56 54/54/54 55/55/55
f 59/59/59 58/58/58 57/57/57
f 60/60/60 58/58/58 59/59/59
f 63/63/63 62/62/62 61/61/61
f 64/64/64 62/62/62 63/63/63
