g android_cake_3
v 0.3 0.3 -0.3
v 0.3 0 -0.3
v -0.3 0 -0.3
v -0.3 0.3 -0.3
v 0.1 0.3 0.1
v 0.1 0 0.1
v -0.1 0 0.1
v -0.1 0.3 0.1
v -0.3 0.3 0.3
v -0.3 0 0.3
v 0.3 0 0.3
v 0.3 0.3 0.3
v -0.1 0.3 -0.1
v -0.1 0 -0.1
v 0.1 0 -0.1
v 0.1 0.3 -0.1
v -0.3 0.3 0.1
v 0.3 0.3 0.1
v -0.1 0.3 -0.3
v 0.1 0.3 -0.3
v -0.3 0 0.1
v 0.3 0 0.1
v -0.1 0 -0.3
v 0.1 0 -0.3
v -0.3 0 -0.3
v -0.3 0.3 -0.3
v -0.3 0.3 0.3
v -0.3 0 0.3
v 0.1 0 -0.1
v 0.1 0.3 -0.1
v 0.1 0.3 0.1
v 0.1 0 0.1
v 0.3 0 0.3
v 0.3 0.3 0.3
v 0.3 0.3 -0.3
v 0.3 0 -0.3
v -0.1 0 0.1
v -0.1 0.3 0.1
v -0.1 0.3 -0.1
v -0.1 0 -0.1
v -0.1 0.3 0.1
v -0.3 0.3 0.3
v -0.3 0.3 0.1
v 0.3 0.3 0.3
v 0.1 0.3 0.1
v 0.3 0.3 0.1
v -0.1 0.3 -0.3
v -0.3 0.3 0.1
v -0.3 0.3 -0.3
v -0.1 0.3 0.1
v -0.1 0.3 -0.1
v 0.3 0.3 -0.3
v 0.1 0.3 -0.1
v 0.1 0.3 -0.3
v 0.1 0.3 0.1
v 0.3 0.3 0.1
v -0.1 0.3 -0.3
v 0.1 0.3 -0.3
v -0.1 0.3 -0.1
v 0.1 0.3 -0.1
v 0.3 0 0.3
v -0.3 0 0.1
v -0.3 0 0.3
v -0.1 0 0.1
v 0.3 0 0.1
v 0.1 0 0.1
v -0.1 0 0.1
v -0.3 0 -0.3
v -0.3 0 0.1
v -0.1 0 -0.3
v -0.1 0 -0.1
v 0.3 0 0.1
v 0.1 0 -0.1
v 0.1 0 0.1
v 0.1 0 -0.3
v 0.3 0 -0.3
v -0.1 0 -0.1
v 0.1 0 -0.1
v -0.1 0 -0.3
v 0.1 0 -0.3
v -0.1 0.3 0.1
v -0.1 0.3 -0.3
v -0.1 0 0.1
v 0.3 0 0.1
v -0.1 0 -0.3
v -0.1 0 0.1
vt 0.382813 0.429688
vt 0.382813 0.40625
vt 0.429688 0.40625
vt 0.429688 0.429688
vt 0.75 0.46875
vt 0.75 0.445313
vt 0.765625 0.445313
vt 0.765625 0.46875
vt 0.445313 0.429688
vt 0.445313 0.40625
vt 0.492188 0.40625
vt 0.492188 0.429688
vt 0.8125 0.46875
vt 0.8125 0.445313
vt 0.828125 0.445313
vt 0.828125 0.46875
vt 0.164063 0.429688
vt 0.210938 0.429688
vt 0.414063 0.429688
vt 0.398438 0.429688
vt 0.164063 0.40625
vt 0.210938 0.40625
vt 0.414063 0.40625
vt 0.398438 0.40625
vt 0.132813 0.40625
vt 0.132813 0.429688
vt 0.179688 0.429688
vt 0.179688 0.40625
vt 0.625 0.445313
vt 0.625 0.46875
vt 0.640625 0.46875
vt 0.640625 0.445313
vt 0.195313 0.40625
vt 0.195313 0.429688
vt 0.242188 0.429688
vt 0.242188 0.40625
vt 0.132813 0.484375
vt 0.132813 0.507813
vt 0.148438 0.507813
vt 0.148438 0.484375
vt 0.335938 0.570313
vt 0.320313 0.554688
vt 0.320313 0.570313
vt 0.367188 0.554688
vt 0.351563 0.570313
vt 0.367188 0.570313
vt 0.179688 0.390625
vt 0.164063 0.359375
vt 0.164063 0.390625
vt 0.179688 0.359375
vt 0.179688 0.375
vt 0.054688 0.390625
vt 0.039063 0.375
vt 0.039063 0.390625
vt 0.039063 0.359375
vt 0.054688 0.359375
vt 0.570313 0.632813
vt 0.585938 0.632813
vt 0.570313 0.617188
vt 0.585938 0.617188
vt 0.179688 0.570313
vt 0.132813 0.554688
vt 0.132813 0.570313
vt 0.148438 0.554688
vt 0.179688 0.554688
vt 0.164063 0.554688
vt 0.085938 0.390625
vt 0.070313 0.359375
vt 0.070313 0.390625
vt 0.085938 0.359375
vt 0.085938 0.375
vt 0.210938 0.390625
vt 0.195313 0.375
vt 0.195313 0.390625
vt 0.195313 0.359375
vt 0.210938 0.359375
vt 0.414063 0.632813
vt 0.429688 0.632813
vt 0.414063 0.617188
vt 0.429688 0.617188
vt 0.179688 0.359375
vt 0.179688 0.390625
vt 0.148438 0.554688
vt 0.179688 0.554688
vt 0.085938 0.359375
vt 0.085938 0.390625
vn -0 0 -1
vn -0 0 -1
vn -0 0 -1
vn -0 0 -1
vn -0 0 -1
vn -0 0 -1
vn -0 0 -1
vn -0 0 -1
vn -0 0 1
vn -0 0 1
vn -0 0 1
vn -0 0 1
vn -0 0 1
vn -0 0 1
vn -0 0 1
vn -0 0 1
vn -1 0 0
vn 1 0 0
vn -0 0 -1
vn -0 0 -1
vn -1 0 0
vn 1 0 0
vn -0 0 -1
vn -0 0 -1
vn -1 0 0
vn -1 0 0
vn -1 0 0
vn -1 0 0
vn -1 0 0
vn -1 0 0
vn -1 0 0
vn -1 0 0
vn 1 0 0
vn 1 0 0
vn 1 0 0
vn 1 0 0
vn 1 0 0
vn 1 0 0
vn 1 0 0
vn 1 0 0
vn -0 1 0
vn -0 1 0
vn -0 1 0
vn -0 1 0
vn -0 1 0
vn -0 1 0
vn -0 1 0
vn -0 1 0
vn -0 1 0
vn -0 1 0
vn -0 1 0
vn -0 1 0
vn -0 1 0
vn -0 1 0
vn -0 1 0
vn -0 1 0
vn -0 1 0
vn -0 1 0
vn -0 1 0
vn -0 1 0
vn -0 -1 0
vn -0 -1 0
vn -0 -1 0
vn -0 -1 0
vn -0 -1 0
vn -0 1 0
vn -0 -1 0
vn -0 -1 0
vn -0 -1 0
vn -0 -1 0
vn -0 1 0
vn -0 -1 0
vn -0 -1 0
vn -0 -1 0
vn -0 -1 0
vn -0 -1 0
vn -0 -1 0
vn -0 -1 0
vn -0 -1 0
vn -0 -1 0
vn -0 1 0
vn -0 1 0
vn -0 1 0
vn -0 1 0
vn -0 1 0
vn -0 1 0
g android_cake_3_0
f 1/1/1 2/2/2 20/20/20
f 19/19/19 20/20/20 2/2/2
f 2/2/2 24/24/24 19/19/19
f 4/4/4 19/19/19 24/24/24
f 24/24/24 23/23/23 4/4/4
f 3/3/3 4/4/4 23/23/23
f 8/8/8 5/5/5 6/6/6
f 7/7/7 8/8/8 6/6/6
f 12/12/12 9/9/9 10/10/10
f 11/11/11 12/12/12 10/10/10
f 16/16/16 13/13/13 14/14/14
f 15/15/15 16/16/16 14/14/14
f 26/26/26 25/25/25 17/17/17
f 27/27/27 17/17/17 25/25/25
f 25/25/25 21/21/21 27/27/27
f 28/28/28 27/27/27 21/21/21
f 31/31/31 30/30/30 29/29/29
f 32/32/32 31/31/31 29/29/29
f 34/34/34 33/33/33 18/18/18
f 35/35/35 18/18/18 33/33/33
f 33/33/33 22/22/22 35/35/35
f 36/36/36 35/35/35 22/22/22
f 39/39/39 38/38/38 37/37/37
f 40/40/40 39/39/39 37/37/37
f 43/43/43 42/42/42 41/41/41
f 44/44/44 41/41/41 42/42/42
f 41/41/41 44/44/44 45/45/45
f 46/46/46 45/45/45 44/44/44
f 49/49/49 48/48/48 47/47/47
f 50/50/50 47/47/47 48/48/48
f 82/82/82 81/81/81 51/51/51
f 54/54/54 53/53/53 52/52/52
f 55/55/55 52/52/52 53/53/53
f 52/52/52 55/55/55 56/56/56
f 59/59/59 58/58/58 57/57/57
f 60/60/60 58/58/58 59/59/59
f 63/63/63 62/62/62 61/61/61
f 64/64/64 61/61/61 62/62/62
f 61/61/61 64/64/64 65/65/65
f 66/66/66 84/84/84 83/83/83
f 69/69/69 68/68/68 67/67/67
f 70/70/70 67/67/67 68/68/68
f 86/86/86 85/85/85 71/71/71
f 74/74/74 73/73/73 72/72/72
f 75/75/75 72/72/72 73/73/73
f 72/72/72 75/75/75 76/76/76
f 79/79/79 78/78/78 77/77/77
f 80/80/80 78/78/78 79/79/79
