g matthew_optimised
v 0.14 0.91 -0.105000004
v 0.21000001 0.49 -0.105000004
v 0.21000001 0.91 -0.105000004
v -0.07 0.91 -0.105000004
v -0.14 0.49 -0.105000004
v -0.14 0.91 -0.105000004
v -0.14 0.56 -0.105000004
v -0.14 0.77 -0.105000004
v -0.14 0.7 -0.105000004
v -0.14 0.49 -0.105000004
v 0.21000001 0.42000002 -0.105000004
v 0.21000001 0.49 -0.105000004
v -0.14 0.42000002 -0.105000004
v -0.07 0.42000002 -0.105000004
v -0 0.07 -0.035
v -0 0.42000002 -0.035
v -0.07 0.42000002 -0.035
v -0.07 0.07 -0.035
v 0.14 0.91 -0.105000004
v 0.14 1.05 -0.105000004
v -0.07 1.05 -0.105000004
v -0.07 0.91 -0.105000004
v 0.14 1.12 -0.105000004
v 0.14 1.26 -0.105000004
v -0.07 1.26 -0.105000004
v -0.07 1.12 -0.105000004
v 0.14 0.07 -0.035
v 0.14 0.42000002 -0.035
v 0.07 0.42000002 -0.035
v 0.07 0.07 -0.035
v 0.14 1.05 -0.105000004
v 0.14 1.12 -0.105000004
v -0.07 1.12 -0.105000004
v -0.07 1.05 -0.105000004
v 0.28 0.56 -0.035
v 0.28 0.84000003 -0.035
v 0.21000001 0.84000003 -0.035
v 0.21000001 0.56 -0.035
v -0.28 0.77 -0.035
v -0.21000001 0.7 -0.035
v -0.21000001 0.77 -0.035
v -0.28 0.63 -0.035
v -0.21000001 0.63 -0.035
v -0.14 0.77 -0.035
v -0.28 0.84000003 -0.035
v -0.14 0.84000003 -0.035
v -0.14 0.56 -0.035
v -0.14 0.63 -0.035
v -0.21000001 0.63 -0.035
v -0.21000001 0.56 -0.035
v -0.14 0.63 -0.035
v -0.14 0.7 -0.035
v -0.21000001 0.7 -0.035
v -0.21000001 0.63 -0.035
v -0 0 -0.035
v -0 0.07 -0.035
v -0.07 0.07 -0.035
v -0.07 0 -0.035
v 0.14 0 -0.035
v 0.14 0.07 -0.035
v 0.07 0.07 -0.035
v 0.07 0 -0.035
v 0.28 0.42000002 -0.035
v 0.28 0.49 -0.035
v 0.21000001 0.49 -0.035
v 0.21000001 0.42000002 -0.035
v 0.28 0.49 -0.035
v 0.28 0.56 -0.035
v 0.21000001 0.56 -0.035
v 0.21000001 0.49 -0.035
v 0.14 0.84000003 0.105000004
v 0.07 0.77 0.105000004
v 0.07 0.84000003 0.105000004
v 0.21000001 0.84000003 0.105000004
v 0.07 0.7 0.105000004
v 0.21000001 0.49 0.105000004
v 0.07 0.63 0.105000004
v 0.07 0.49 0.105000004
v 0.07 0.56 0.105000004
v 0.21000001 0.91 0.105000004
v 0.14 0.91 0.105000004
v -0 0.49 0.105000004
v -0.14 0.42000002 0.105000004
v -0.14 0.49 0.105000004
v 0.07 0.49 0.105000004
v -0 0.42000002 0.105000004
v 0.21000001 0.49 0.105000004
v 0.07 0.42000002 0.105000004
v 0.21000001 0.42000002 0.105000004
v -0.07 0.77 0.105000004
v -0.14 0.49 0.105000004
v -0.14 0.77 0.105000004
v -0 0.77 0.105000004
v -0 0.49 0.105000004
v -0 0.7 0.105000004
v -0 0.56 0.105000004
v -0 0.63 0.105000004
v -0.07 0.84000003 0.105000004
v -0.07 0.91 0.105000004
v -0.14 0.91 0.105000004
v -0 0.84000003 0.105000004
v -0.07 0.07 0.035
v -0.07 0.42000002 0.035
v -0 0.42000002 0.035
v -0 0.07 0.035
v 0.07 0.07 0.035
v 0.07 0.42000002 0.035
v 0.14 0.42000002 0.035
v 0.14 0.07 0.035
v 0.14 0.91 0.105000004
v -0.07 0.84000003 0.105000004
v -0.07 0.91 0.105000004
v 0.14 0.84000003 0.105000004
v -0 0.84000003 0.105000004
v 0.07 0.84000003 0.105000004
v 0.21000001 0.56 0.035
v 0.21000001 0.84000003 0.035
v 0.28 0.84000003 0.035
v 0.28 0.56 0.035
v -0.21000001 0.77 0.035
v -0.28 0.63 0.035
v -0.28 0.77 0.035
v -0.21000001 0.7 0.035
v -0.21000001 0.63 0.035
v -0.14 0.77 0.035
v -0.14 0.84000003 0.035
v -0.28 0.84000003 0.035
v -0 1.05 0.035
v -0.07 0.91 0.035
v -0.07 1.05 0.035
v -0 0.98 0.035
v -0 0.91 0.035
v 0.07 1.12 0.035
v -0 1.12 0.035
v -0.07 1.12 0.035
v 0.07 1.05 0.035
v 0.07 0.98 0.035
v 0.14 0.98 0.035
v 0.14 0.91 0.035
v 0.14 1.12 0.035
v 0.14 1.19 0.035
v -0 1.19 0.035
v 0.14 1.05 0.035
v -0.07 1.12 0.105000004
v -0.07 1.26 0.105000004
v -0 1.26 0.105000004
v -0 1.12 0.105000004
v -0 1.19 0.035
v -0 1.26 0.035
v 0.14 1.26 0.035
v 0.14 1.19 0.035
v -0.21000001 0.56 0.035
v -0.21000001 0.63 0.035
v -0.14 0.63 0.035
v -0.14 0.56 0.035
v -0.21000001 0.63 0.035
v -0.21000001 0.7 0.035
v -0.14 0.7 0.035
v -0.14 0.63 0.035
v -0.07 0 0.105000004
v -0.07 0.07 0.105000004
v -0 0.07 0.105000004
v -0 0 0.105000004
v -0 0.49 0.105000004
v -0 0.56 0.105000004
v 0.07 0.56 0.105000004
v 0.07 0.49 0.105000004
v -0 0.56 0.105000004
v -0 0.63 0.105000004
v 0.07 0.63 0.105000004
v 0.07 0.56 0.105000004
v -0 0.63 0.105000004
v -0 0.7 0.105000004
v 0.07 0.7 0.105000004
v 0.07 0.63 0.105000004
v -0 0.7 0.105000004
v -0 0.77 0.105000004
v 0.07 0.77 0.105000004
v 0.07 0.7 0.105000004
v -0 0.77 0.105000004
v -0 0.84000003 0.105000004
v 0.07 0.84000003 0.105000004
v 0.07 0.77 0.105000004
v -0 0.98 0.035
v -0 1.05 0.035
v 0.07 1.05 0.035
v 0.07 0.98 0.035
v 0.07 0 0.105000004
v 0.07 0.07 0.105000004
v 0.14 0.07 0.105000004
v 0.14 0 0.105000004
v 0.21000001 0.42000002 0.035
v 0.21000001 0.49 0.035
v 0.28 0.49 0.035
v 0.28 0.42000002 0.035
v 0.21000001 0.49 0.035
v 0.21000001 0.56 0.035
v 0.28 0.56 0.035
v 0.28 0.49 0.035
v -0.14 0.91 0.105000004
v -0.14 0.84000003 0.035
v -0.14 0.91 0.035
v -0.14 0.77 0.105000004
v -0.14 0.77 0.035
v -0.14 0.49 0.105000004
v -0.14 0.7 0.035
v -0.14 0.49 0.035
v -0.14 0.63 0.035
v -0.14 0.56 0.035
v -0.14 0.49 -0.105000004
v -0.14 0.56 -0.035
v -0.14 0.56 -0.105000004
v -0.14 0.63 -0.035
v -0.14 0.7 -0.035
v -0.14 0.7 -0.105000004
v -0.14 0.77 -0.035
v -0.14 0.77 -0.105000004
v -0.14 0.84000003 -0.035
v -0.14 0.91 -0.035
v -0.14 0.91 -0.105000004
v -0.07 0.07 -0.035
v -0.07 0.42000002 -0.035
v -0.07 0.42000002 0.035
v -0.07 0.07 0.035
v -0.07 1.26 0.035
v -0.07 1.12 -0.105000004
v -0.07 1.26 -0.105000004
v -0.07 1.26 0.105000004
v -0.07 1.12 -0.035
v -0.07 1.12 0.105000004
v -0.07 1.12 0.035
v 0.07 0.07 -0.035
v 0.07 0.42000002 -0.035
v 0.07 0.42000002 0.035
v 0.07 0.07 0.035
v -0.28 0.84000003 0.035
v -0.28 0.77 -0.035
v -0.28 0.84000003 -0.035
v -0.28 0.77 0.035
v -0.28 0.63 -0.035
v -0.28 0.63 0.035
v -0.14 0.49 0.035
v -0.14 0.42000002 -0.105000004
v -0.14 0.49 -0.105000004
v -0.14 0.49 0.105000004
v -0.14 0.42000002 0.035
v -0.14 0.42000002 0.105000004
v -0.07 1.05 -0.035
v -0.07 0.91 -0.105000004
v -0.07 1.05 -0.105000004
v -0.07 1.05 0.035
v -0.07 0.91 0.035
v -0.07 1.12 0.035
v -0.07 1.12 -0.035
v -0.07 0.07 0.035
v -0.07 0 -0.035
v -0.07 0.07 -0.035
v -0.07 0.07 0.105000004
v -0.07 0 0.105000004
v 0.07 0.07 0.035
v 0.07 0 -0.035
v 0.07 0.07 -0.035
v 0.07 0.07 0.105000004
v 0.07 0 0.105000004
v -0.21000001 0.56 -0.035
v -0.21000001 0.63 -0.035
v -0.21000001 0.63 0.035
v -0.21000001 0.56 0.035
v -0.07 1.05 -0.105000004
v -0.07 1.12 -0.105000004
v -0.07 1.12 -0.035
v -0.07 1.05 -0.035
v -0 0.07 0.035
v -0 0.42000002 0.035
v -0 0.42000002 -0.035
v -0 0.07 -0.035
v 0.14 0.07 0.035
v 0.14 0.42000002 0.035
v 0.14 0.42000002 -0.035
v 0.14 0.07 -0.035
v 0.21000001 0.91 -0.105000004
v 0.21000001 0.84000003 -0.035
v 0.21000001 0.91 -0.035
v 0.21000001 0.49 -0.105000004
v 0.21000001 0.56 -0.035
v 0.21000001 0.49 -0.035
v 0.21000001 0.84000003 0.035
v 0.21000001 0.91 0.035
v 0.21000001 0.84000003 0.105000004
v 0.21000001 0.91 0.105000004
v 0.21000001 0.49 0.105000004
v 0.21000001 0.56 0.035
v 0.21000001 0.49 0.035
v 0.14 1.05 -0.035
v 0.14 0.98 0.035
v 0.14 1.05 0.035
v 0.14 1.05 -0.105000004
v 0.14 0.91 0.035
v 0.14 0.91 -0.105000004
v 0.14 1.12 -0.035
v 0.14 1.12 0.035
v 0.14 1.19 -0.035
v 0.14 1.19 0.035
v 0.28 0.56 0.035
v 0.28 0.84000003 0.035
v 0.28 0.84000003 -0.035
v 0.28 0.56 -0.035
v -0 0.07 0.035
v -0 0 0.105000004
v -0 0.07 0.105000004
v -0 0.07 -0.035
v -0 0 -0.035
v -0 1.26 0.035
v -0 1.12 0.105000004
v -0 1.26 0.105000004
v -0 1.19 0.035
v -0 1.12 0.035
v 0.14 0.07 0.035
v 0.14 0 0.105000004
v 0.14 0.07 0.105000004
v 0.14 0.07 -0.035
v 0.14 0 -0.035
v 0.14 1.26 -0.105000004
v 0.14 1.19 -0.035
v 0.14 1.26 -0.035
v 0.14 1.12 -0.105000004
v 0.14 1.12 -0.035
v 0.14 1.19 0.035
v 0.14 1.26 0.035
v -0.21000001 0.7 0.035
v -0.21000001 0.77 0.035
v -0.21000001 0.77 -0.035
v -0.21000001 0.7 -0.035
v 0.14 1.05 -0.035
v 0.14 1.12 -0.035
v 0.14 1.12 -0.105000004
v 0.14 1.05 -0.105000004
v 0.21000001 0.42000002 -0.035
v 0.21000001 0.49 -0.035
v 0.21000001 0.49 -0.105000004
v 0.21000001 0.42000002 -0.105000004
v 0.21000001 0.42000002 0.105000004
v 0.21000001 0.49 0.105000004
v 0.21000001 0.49 0.035
v 0.21000001 0.42000002 0.035
v 0.28 0.42000002 0.035
v 0.28 0.49 0.035
v 0.28 0.49 -0.035
v 0.28 0.42000002 -0.035
v 0.28 0.49 0.035
v 0.28 0.56 0.035
v 0.28 0.56 -0.035
v 0.28 0.49 -0.035
v 0.14 1.26 -0.105000004
v -0.07 1.26 0.035
v -0.07 1.26 -0.105000004
v -0 1.26 0.035
v 0.14 1.26 -0.035
v 0.14 1.26 0.035
v -0.07 1.26 0.105000004
v -0 1.26 0.105000004
v -0.07 0.91 -0.105000004
v -0.14 0.91 -0.035
v -0.14 0.91 -0.105000004
v -0.14 0.91 0.035
v -0.07 0.91 0.035
v -0.14 0.91 0.105000004
v -0.07 0.91 0.105000004
v -0 0.91 0.035
v -0.07 0.91 0.105000004
v -0.07 0.91 0.035
v 0.14 0.91 0.105000004
v 0.14 0.91 0.035
v 0.21000001 0.91 -0.105000004
v 0.14 0.91 0.035
v 0.14 0.91 -0.105000004
v 0.14 0.91 0.105000004
v 0.21000001 0.91 -0.035
v 0.21000001 0.91 0.105000004
v 0.21000001 0.91 0.035
v -0.28 0.84000003 -0.035
v -0.14 0.84000003 -0.035
v -0.28 0.84000003 0.035
v -0.14 0.84000003 0.035
v -0.21000001 0.7 -0.035
v -0.14 0.7 -0.035
v -0.21000001 0.7 0.035
v -0.14 0.7 0.035
v -0.07 0.07 0.035
v -0 0.07 0.035
v -0.07 0.07 0.105000004
v -0 0.07 0.105000004
v 0.07 0.07 0.035
v 0.14 0.07 0.035
v 0.07 0.07 0.105000004
v 0.14 0.07 0.105000004
v 0.21000001 0.84000003 -0.035
v 0.28 0.84000003 -0.035
v 0.21000001 0.84000003 0.035
v 0.28 0.84000003 0.035
vn -0 0 -1
vn -0 0 -1
vn -0 0 -1
vn -0 0 -1
vn -0 0 -1
vn -0 0 -1
vn -0 0 -1
vn -0 0 -1
vn -0 0 -1
vn -0 0 -1
vn -0 0 -1
vn -0 0 -1
vn -0 0 -1
vn -0 0 -1
vn -0 0 -1
vn -0 0 -1
vn -0 0 -1
vn -0 0 -1
vn -0 0 -1
vn -0 0 -1
vn -0 0 -1
vn -0 0 -1
vn -0 0 -1
vn -0 0 -1
vn -0 0 -1
vn -0 0 -1
vn -0 0 -1
vn -0 0 -1
vn -0 0 -1
vn -0 0 -1
vn -0 0 -1
vn -0 0 -1
vn -0 0 -1
vn -0 0 -1
vn -0 0 -1
vn -0 0 -1
vn -0 0 -1
vn -0 0 -1
vn -0 0 -1
vn -0 0 -1
vn -0 0 -1
vn -0 0 -1
vn -0 0 -1
vn -0 0 -1
vn -0 0 -1
vn -0 0 -1
vn -0 0 -1
vn -0 0 -1
vn -0 0 -1
vn -0 0 -1
vn -0 0 -1
vn -0 0 -1
vn -0 0 -1
vn -0 0 -1
vn -0 0 -1
vn -0 0 -1
vn -0 0 -1
vn -0 0 -1
vn -0 0 -1
vn -0 0 -1
vn -0 0 -1
vn -0 0 -1
vn -0 0 -1
vn -0 0 -1
vn -0 0 -1
vn -0 0 -1
vn -0 0 -1
vn -0 0 -1
vn -0 0 -1
vn -0 0 -1
vn -0 0 1
vn -0 0 1
vn -0 0 1
vn -0 0 1
vn -0 0 1
vn -0 0 1
vn -0 0 1
vn -0 0 1
vn -0 0 1
vn -0 0 1
vn -0 0 1
vn -0 0 1
vn -0 0 1
vn -0 0 1
vn -0 0 1
vn -0 0 1
vn -0 0 1
vn -0 0 1
vn -0 0 1
vn -0 0 1
vn -0 0 1
vn -0 0 1
vn -0 0 1
vn -0 0 1
vn -0 0 1
vn -0 0 1
vn -0 0 1
vn -0 0 1
vn -0 0 1
vn -0 0 1
vn -0 0 1
vn -0 0 1
vn -0 0 1
vn -0 0 1
vn -0 0 1
vn -0 0 1
vn -0 0 1
vn -0 0 1
vn -0 0 1
vn -0 0 1
vn -0 0 1
vn -0 0 1
vn -0 0 1
vn -0 0 1
vn -0 0 1
vn -0 0 1
vn -0 0 1
vn -0 0 1
vn -0 0 1
vn -0 0 1
vn -0 0 1
vn -0 0 1
vn -0 0 1
vn -0 0 1
vn -0 0 1
vn -0 0 1
vn -0 0 1
vn -0 0 1
vn -0 0 1
vn -0 0 1
vn -0 0 1
vn -0 0 1
vn -0 0 1
vn -0 0 1
vn -0 0 1
vn -0 0 1
vn -0 0 1
vn -0 0 1
vn -0 0 1
vn -0 0 1
vn -0 0 1
vn -0 0 1
vn -0 0 1
vn -0 0 1
vn -0 0 1
vn -0 0 1
vn -0 0 1
vn -0 0 1
vn -0 0 1
vn -0 0 1
vn -0 0 1
vn -0 0 1
vn -0 0 1
vn -0 0 1
vn -0 0 1
vn -0 0 1
vn -0 0 1
vn -0 0 1
vn -0 0 1
vn -0 0 1
vn -0 0 1
vn -0 0 1
vn -0 0 1
vn -0 0 1
vn -0 0 1
vn -0 0 1
vn -0 0 1
vn -0 0 1
vn -0 0 1
vn -0 0 1
vn -0 0 1
vn -0 0 1
vn -0 0 1
vn -0 0 1
vn -0 0 1
vn -0 0 1
vn -0 0 1
vn -0 0 1
vn -0 0 1
vn -0 0 1
vn -0 0 1
vn -0 0 1
vn -0 0 1
vn -0 0 1
vn -0 0 1
vn -0 0 1
vn -0 0 1
vn -0 0 1
vn -0 0 1
vn -0 0 1
vn -0 0 1
vn -0 0 1
vn -0 0 1
vn -0 0 1
vn -0 0 1
vn -0 0 1
vn -0 0 1
vn -0 0 1
vn -0 0 1
vn -1 0 0
vn -1 0 0
vn -1 0 0
vn -1 0 0
vn -1 0 0
vn -1 0 0
vn -1 0 0
vn -1 0 0
vn -1 0 0
vn -1 0 0
vn -1 0 0
vn -1 0 0
vn -1 0 0
vn -1 0 0
vn -1 0 0
vn -1 0 0
vn -1 0 0
vn -1 0 0
vn -1 0 0
vn -1 0 0
vn -1 0 0
vn -1 0 0
vn -1 0 0
vn -1 0 0
vn -1 0 0
vn -1 0 0
vn -1 0 0
vn -1 0 0
vn -1 0 0
vn -1 0 0
vn -1 0 0
vn -1 0 0
vn -1 0 0
vn -1 0 0
vn -1 0 0
vn -1 0 0
vn -1 0 0
vn -1 0 0
vn -1 0 0
vn -1 0 0
vn -1 0 0
vn -1 0 0
vn -1 0 0
vn -1 0 0
vn -1 0 0
vn -1 0 0
vn -1 0 0
vn -1 0 0
vn -1 0 0
vn -1 0 0
vn -1 0 0
vn -1 0 0
vn -1 0 0
vn -1 0 0
vn -1 0 0
vn -1 0 0
vn -1 0 0
vn -1 0 0
vn -1 0 0
vn -1 0 0
vn -1 0 0
vn -1 0 0
vn -1 0 0
vn -1 0 0
vn -1 0 0
vn -1 0 0
vn -1 0 0
vn -1 0 0
vn -1 0 0
vn -1 0 0
vn -1 0 0
vn -1 0 0
vn -1 0 0
vn 1 0 0
vn 1 0 0
vn 1 0 0
vn 1 0 0
vn 1 0 0
vn 1 0 0
vn 1 0 0
vn 1 0 0
vn 1 0 0
vn 1 0 0
vn 1 0 0
vn 1 0 0
vn 1 0 0
vn 1 0 0
vn 1 0 0
vn 1 0 0
vn 1 0 0
vn 1 0 0
vn 1 0 0
vn 1 0 0
vn 1 0 0
vn 1 0 0
vn 1 0 0
vn 1 0 0
vn 1 0 0
vn 1 0 0
vn 1 0 0
vn 1 0 0
vn 1 0 0
vn 1 0 0
vn 1 0 0
vn 1 0 0
vn 1 0 0
vn 1 0 0
vn 1 0 0
vn 1 0 0
vn 1 0 0
vn 1 0 0
vn 1 0 0
vn 1 0 0
vn 1 0 0
vn 1 0 0
vn 1 0 0
vn 1 0 0
vn 1 0 0
vn 1 0 0
vn 1 0 0
vn 1 0 0
vn 1 0 0
vn 1 0 0
vn 1 0 0
vn 1 0 0
vn 1 0 0
vn 1 0 0
vn 1 0 0
vn 1 0 0
vn 1 0 0
vn 1 0 0
vn 1 0 0
vn 1 0 0
vn 1 0 0
vn 1 0 0
vn 1 0 0
vn 1 0 0
vn 1 0 0
vn 1 0 0
vn 1 0 0
vn 1 0 0
vn 1 0 0
vn 1 0 0
vn 1 0 0
vn 1 0 0
vn 1 0 0
vn 1 0 0
vn 1 0 0
vn 1 0 0
vn 1 0 0
vn 1 0 0
vn 1 0 0
vn 1 0 0
vn 1 0 0
vn -0 1 0
vn -0 1 0
vn -0 1 0
vn -0 1 0
vn -0 1 0
vn -0 1 0
vn -0 1 0
vn -0 1 0
vn -0 1 0
vn -0 1 0
vn -0 1 0
vn -0 1 0
vn -0 1 0
vn -0 1 0
vn -0 1 0
vn -0 1 0
vn -0 1 0
vn -0 1 0
vn -0 1 0
vn -0 1 0
vn -0 1 0
vn -0 1 0
vn -0 1 0
vn -0 1 0
vn -0 1 0
vn -0 1 0
vn -0 1 0
vn -0 1 0
vn -0 1 0
vn -0 1 0
vn -0 1 0
vn -0 1 0
vn -0 1 0
vn -0 1 0
vn -0 1 0
vn -0 1 0
vn -0 1 0
vn -0 1 0
vn -0 1 0
vn -0 1 0
vn -0 1 0
vn -0 1 0
vn -0 1 0
vn -0 1 0
vn -0 1 0
vn -0 1 0
vn -0 1 0
g matthew_optimised_0
f 3/3/3 2/2/2 1/1/1
f 4/4/4 1/1/1 2/2/2
f 2/2/2 5/5/5 4/4/4
f 6/6/6 4/4/4 5/5/5
f 5/5/5 7/7/7 6/6/6
f 8/8/8 6/6/6 7/7/7
f 7/7/7 9/9/9 8/8/8
f 12/12/12 11/11/11 10/10/10
f 13/13/13 10/10/10 11/11/11
f 11/11/11 14/14/14 13/13/13
f 17/17/17 16/16/16 15/15/15
f 18/18/18 17/17/17 15/15/15
f 21/21/21 20/20/20 19/19/19
f 22/22/22 21/21/21 19/19/19
f 25/25/25 24/24/24 23/23/23
f 26/26/26 25/25/25 23/23/23
f 29/29/29 28/28/28 27/27/27
f 30/30/30 29/29/29 27/27/27
f 33/33/33 32/32/32 31/31/31
f 34/34/34 33/33/33 31/31/31
f 37/37/37 36/36/36 35/35/35
f 38/38/38 37/37/37 35/35/35
f 41/41/41 40/40/40 39/39/39
f 42/42/42 39/39/39 40/40/40
f 40/40/40 43/43/43 42/42/42
f 44/44/44 41/41/41 39/39/39
f 39/39/39 45/45/45 44/44/44
f 46/46/46 44/44/44 45/45/45
f 49/49/49 48/48/48 47/47/47
f 50/50/50 49/49/49 47/47/47
f 53/53/53 52/52/52 51/51/51
f 54/54/54 53/53/53 51/51/51
f 57/57/57 56/56/56 55/55/55
f 58/58/58 57/57/57 55/55/55
f 61/61/61 60/60/60 59/59/59
f 62/62/62 61/61/61 59/59/59
f 65/65/65 64/64/64 63/63/63
f 66/66/66 65/65/65 63/63/63
f 69/69/69 68/68/68 67/67/67
f 70/70/70 69/69/69 67/67/67
f 73/73/73 72/72/72 71/71/71
f 74/74/74 71/71/71 72/72/72
f 72/72/72 75/75/75 74/74/74
f 76/76/76 74/74/74 75/75/75
f 75/75/75 77/77/77 76/76/76
f 78/78/78 76/76/76 77/77/77
f 77/77/77 79/79/79 78/78/78
f 74/74/74 80/80/80 71/71/71
f 80/80/80 81/81/81 71/71/71
f 84/84/84 83/83/83 82/82/82
f 85/85/85 82/82/82 83/83/83
f 83/83/83 86/86/86 85/85/85
f 87/87/87 85/85/85 86/86/86
f 86/86/86 88/88/88 87/87/87
f 89/89/89 87/87/87 88/88/88
f 92/92/92 91/91/91 90/90/90
f 93/93/93 90/90/90 91/91/91
f 91/91/91 94/94/94 93/93/93
f 95/95/95 93/93/93 94/94/94
f 94/94/94 96/96/96 95/95/95
f 97/97/97 95/95/95 96/96/96
f 92/92/92 90/90/90 98/98/98
f 98/98/98 99/99/99 92/92/92
f 100/100/100 92/92/92 99/99/99
f 101/101/101 98/98/98 90/90/90
f 93/93/93 101/101/101 90/90/90
f 104/104/104 103/103/103 102/102/102
f 105/105/105 104/104/104 102/102/102
f 108/108/108 107/107/107 106/106/106
f 109/109/109 108/108/108 106/106/106
f 112/112/112 111/111/111 110/110/110
f 113/113/113 110/110/110 111/111/111
f 111/111/111 114/114/114 113/113/113
f 115/115/115 113/113/113 114/114/114
f 118/118/118 117/117/117 116/116/116
f 119/119/119 118/118/118 116/116/116
f 122/122/122 121/121/121 120/120/120
f 123/123/123 120/120/120 121/121/121
f 121/121/121 124/124/124 123/123/123
f 122/122/122 120/120/120 125/125/125
f 125/125/125 126/126/126 122/122/122
f 127/127/127 122/122/122 126/126/126
f 130/130/130 129/129/129 128/128/128
f 131/131/131 128/128/128 129/129/129
f 129/129/129 132/132/132 131/131/131
f 130/130/130 128/128/128 133/133/133
f 133/133/133 134/134/134 130/130/130
f 135/135/135 130/130/130 134/134/134
f 136/136/136 133/133/133 128/128/128
f 131/131/131 132/132/132 137/137/137
f 138/138/138 137/137/137 132/132/132
f 132/132/132 139/139/139 138/138/138
f 134/134/134 133/133/133 140/140/140
f 133/133/133 136/136/136 140/140/140
f 140/140/140 141/141/141 134/134/134
f 142/142/142 134/134/134 141/141/141
f 143/143/143 140/140/140 136/136/136
f 136/136/136 137/137/137 143/143/143
f 138/138/138 143/143/143 137/137/137
f 146/146/146 145/145/145 144/144/144
f 147/147/147 146/146/146 144/144/144
f 150/150/150 149/149/149 148/148/148
f 151/151/151 150/150/150 148/148/148
f 154/154/154 153/153/153 152/152/152
f 155/155/155 154/154/154 152/152/152
f 158/158/158 157/157/157 156/156/156
f 159/159/159 158/158/158 156/156/156
f 162/162/162 161/161/161 160/160/160
f 163/163/163 162/162/162 160/160/160
f 166/166/166 165/165/165 164/164/164
f 167/167/167 166/166/166 164/164/164
f 170/170/170 169/169/169 168/168/168
f 171/171/171 170/170/170 168/168/168
f 174/174/174 173/173/173 172/172/172
f 175/175/175 174/174/174 172/172/172
f 178/178/178 177/177/177 176/176/176
f 179/179/179 178/178/178 176/176/176
f 182/182/182 181/181/181 180/180/180
f 183/183/183 182/182/182 180/180/180
f 186/186/186 185/185/185 184/184/184
f 187/187/187 186/186/186 184/184/184
f 190/190/190 189/189/189 188/188/188
f 191/191/191 190/190/190 188/188/188
f 194/194/194 193/193/193 192/192/192
f 195/195/195 194/194/194 192/192/192
f 198/198/198 197/197/197 196/196/196
f 199/199/199 198/198/198 196/196/196
f 202/202/202 201/201/201 200/200/200
f 203/203/203 200/200/200 201/201/201
f 201/201/201 204/204/204 203/203/203
f 205/205/205 203/203/203 204/204/204
f 204/204/204 206/206/206 205/205/205
f 207/207/207 205/205/205 206/206/206
f 206/206/206 208/208/208 207/207/207
f 209/209/209 207/207/207 208/208/208
f 210/210/210 207/207/207 209/209/209
f 209/209/209 211/211/211 210/210/210
f 212/212/212 210/210/210 211/211/211
f 212/212/212 211/211/211 213/213/213
f 213/213/213 214/214/214 212/212/212
f 206/206/206 204/204/204 214/214/214
f 215/215/215 212/212/212 214/214/214
f 215/215/215 214/214/214 204/204/204
f 204/204/204 216/216/216 215/215/215
f 217/217/217 215/215/215 216/216/216
f 217/217/217 216/216/216 218/218/218
f 218/218/218 219/219/219 217/217/217
f 220/220/220 217/217/217 219/219/219
f 202/202/202 219/219/219 218/218/218
f 201/201/201 202/202/202 218/218/218
f 223/223/223 222/222/222 221/221/221
f 224/224/224 223/223/223 221/221/221
f 227/227/227 226/226/226 225/225/225
f 228/228/228 225/225/225 226/226/226
f 226/226/226 229/229/229 228/228/228
f 230/230/230 228/228/228 229/229/229
f 229/229/229 231/231/231 230/230/230
f 234/234/234 233/233/233 232/232/232
f 235/235/235 234/234/234 232/232/232
f 238/238/238 237/237/237 236/236/236
f 239/239/239 236/236/236 237/237/237
f 237/237/237 240/240/240 239/239/239
f 241/241/241 239/239/239 240/240/240
f 244/244/244 243/243/243 242/242/242
f 245/245/245 242/242/242 243/243/243
f 243/243/243 246/246/246 245/245/245
f 247/247/247 245/245/245 246/246/246
f 250/250/250 249/249/249 248/248/248
f 251/251/251 248/248/248 249/249/249
f 249/249/249 252/252/252 251/251/251
f 251/251/251 253/253/253 248/248/248
f 253/253/253 254/254/254 248/248/248
f 257/257/257 256/256/256 255/255/255
f 258/258/258 255/255/255 256/256/256
f 256/256/256 259/259/259 258/258/258
f 262/262/262 261/261/261 260/260/260
f 263/263/263 260/260/260 261/261/261
f 261/261/261 264/264/264 263/263/263
f 267/267/267 266/266/266 265/265/265
f 268/268/268 267/267/267 265/265/265
f 271/271/271 270/270/270 269/269/269
f 272/272/272 271/271/271 269/269/269
f 275/275/275 274/274/274 273/273/273
f 276/276/276 275/275/275 273/273/273
f 279/279/279 278/278/278 277/277/277
f 280/280/280 279/279/279 277/277/277
f 283/283/283 282/282/282 281/281/281
f 284/284/284 281/281/281 282/282/282
f 282/282/282 285/285/285 284/284/284
f 286/286/286 284/284/284 285/285/285
f 282/282/282 283/283/283 287/287/287
f 283/283/283 288/288/288 287/287/287
f 287/287/287 288/288/288 289/289/289
f 290/290/290 289/289/289 288/288/288
f 289/289/289 291/291/291 287/287/287
f 292/292/292 287/287/287 291/291/291
f 291/291/291 293/293/293 292/292/292
f 296/296/296 295/295/295 294/294/294
f 297/297/297 294/294/294 295/295/295
f 295/295/295 298/298/298 297/297/297
f 299/299/299 297/297/297 298/298/298
f 294/294/294 300/300/300 296/296/296
f 301/301/301 296/296/296 300/300/300
f 300/300/300 302/302/302 301/301/301
f 303/303/303 301/301/301 302/302/302
f 306/306/306 305/305/305 304/304/304
f 307/307/307 306/306/306 304/304/304
f 310/310/310 309/309/309 308/308/308
f 311/311/311 308/308/308 309/309/309
f 309/309/309 312/312/312 311/311/311
f 315/315/315 314/314/314 313/313/313
f 316/316/316 313/313/313 314/314/314
f 314/314/314 317/317/317 316/316/316
f 320/320/320 319/319/319 318/318/318
f 321/321/321 318/318/318 319/319/319
f 319/319/319 322/322/322 321/321/321
f 325/325/325 324/324/324 323/323/323
f 326/326/326 323/323/323 324/324/324
f 324/324/324 327/327/327 326/326/326
f 324/324/324 325/325/325 328/328/328
f 325/325/325 329/329/329 328/328/328
f 332/332/332 331/331/331 330/330/330
f 333/333/333 332/332/332 330/330/330
f 336/336/336 335/335/335 334/334/334
f 337/337/337 336/336/336 334/334/334
f 340/340/340 339/339/339 338/338/338
f 341/341/341 340/340/340 338/338/338
f 344/344/344 343/343/343 342/342/342
f 345/345/345 344/344/344 342/342/342
f 348/348/348 347/347/347 346/346/346
f 349/349/349 348/348/348 346/346/346
f 352/352/352 351/351/351 350/350/350
f 353/353/353 352/352/352 350/350/350
f 356/356/356 355/355/355 354/354/354
f 357/357/357 354/354/354 355/355/355
f 354/354/354 357/357/357 358/358/358
f 359/359/359 358/358/358 357/357/357
f 360/360/360 357/357/357 355/355/355
f 361/361/361 357/357/357 360/360/360
f 364/364/364 363/363/363 362/362/362
f 365/365/365 362/362/362 363/363/363
f 362/362/362 365/365/365 366/366/366
f 367/367/367 366/366/366 365/365/365
f 366/366/366 367/367/367 368/368/368
f 371/371/371 370/370/370 369/369/369
f 372/372/372 369/369/369 370/370/370
f 369/369/369 372/372/372 373/373/373
f 376/376/376 375/375/375 374/374/374
f 377/377/377 374/374/374 375/375/375
f 374/374/374 377/377/377 378/378/378
f 379/379/379 378/378/378 377/377/377
f 378/378/378 379/379/379 380/380/380
f 383/383/383 382/382/382 381/381/381
f 384/384/384 382/382/382 383/383/383
f 387/387/387 386/386/386 385/385/385
f 388/388/388 386/386/386 387/387/387
f 391/391/391 390/390/390 389/389/389
f 392/392/392 390/390/390 391/391/391
f 395/395/395 394/394/394 393/393/393
f 396/396/396 394/394/394 395/395/395
f 399/399/399 398/398/398 397/397/397
f 400/400/400 398/398/398 399/399/399
