g eagle_2_optimised
v -0.3125 1.5 -0.25
v -0.3125 1.625 -0.25
v -1.3125 1.625 -0.25
v -1.3125 1.5 -0.25
v -1.4375 1.5 -0.25
v -1.4375 1.75 -0.25
v -1.3125 1.75 -0.25
v -0.1875 1.5 -0.25
v -0.1875 1.625 -0.25
v -0.1875 1.375 -0.25
v -0.3125 1.375 -0.25
v -0.1875 1.5 -1.25
v 0.1875 1.375 -1.25
v 0.1875 1.5 -1.25
v -0.1875 1.375 -1.25
v 0.1875 1.25 -1.25
v -0.1875 1.25 -1.25
v 1.3125 1.5 -0.25
v 1.3125 1.625 -0.25
v 0.3125 1.625 -0.25
v 0.3125 1.5 -0.25
v 0.1875 1.625 -0.25
v 0.1875 1.5 -0.25
v 0.3125 1.375 -0.25
v 0.1875 1.375 -0.25
v 1.4375 1.5 -0.25
v 1.3125 1.75 -0.25
v 1.4375 1.75 -0.25
v -0.1875 1.25 -0.75
v 0.1875 1.125 -0.75
v 0.1875 1.25 -0.75
v -0.1875 1.125 -0.75
v 0.0625 1.125 -0.75
v -0.0625 1.125 -0.75
v 0.0625 1 -0.75
v -0.0625 1 -0.75
v 0.1875 1.375 -0.75
v 0.1875 1.5 -0.75
v -0.1875 1.5 -0.75
v -0.1875 1.375 -0.75
v -0.0625 1 -1
v -0.0625 1.125 -1
v -0.1875 1.125 -1
v -0.1875 1 -1
v 0.0625 0.875 1.125
v 0.0625 1 1.125
v -0.0625 1 1.125
v -0.0625 0.875 1.125
v 0.1875 1 -1
v 0.1875 1.125 -1
v 0.0625 1.125 -1
v 0.0625 1 -1
v -1.3125 1.5 0.25
v -1.3125 1.625 0.25
v -0.3125 1.625 0.25
v -0.3125 1.5 0.25
v -1.4375 1.5 0.25
v -1.3125 1.75 0.25
v -1.4375 1.75 0.25
v -0.1875 1.625 0.25
v -0.1875 1.5 0.25
v -0.3125 1.375 0.25
v -0.1875 1.375 0.25
v 0.3125 1.5 0.25
v 0.3125 1.625 0.25
v 1.3125 1.625 0.25
v 1.3125 1.5 0.25
v 0.1875 1.5 0.25
v 0.1875 1.625 0.25
v 0.1875 1.375 0.25
v 0.3125 1.375 0.25
v 1.4375 1.5 0.25
v 1.4375 1.75 0.25
v 1.3125 1.75 0.25
v -0.0625 1.5 1
v -0.1875 1.25 1
v -0.1875 1.5 1
v -0.0625 1.25 1
v -0.1875 1 1
v -0.0625 1 1
v 0.1875 1.5 1
v 0.1875 1.25 1
v 0.0625 1.25 1
v 0.0625 1 1
v 0.1875 1 1
v -0.1875 1.375 -1.125
v -0.1875 1.5 -1.125
v 0.1875 1.5 -1.125
v 0.1875 1.375 -1.125
v -0.0625 0.875 1.25
v -0.0625 1.25 1.25
v 0.0625 1.25 1.25
v 0.0625 0.875 1.25
v -0.1875 1.375 -0.25
v -0.1875 1.25 -0.75
v -0.1875 1.375 -0.75
v -0.1875 1.375 0.25
v -0.1875 1.125 -0.75
v -0.1875 1 0.25
v -0.1875 1 -0.75
v -0.1875 1.25 0.5
v -0.1875 1.5 0.5
v -0.1875 1.5 0.25
v -0.1875 1 0.5
v -0.1875 1.5 -0.25
v -0.1875 1.5 -0.75
v -1.4375 1.5 -0.25
v -1.4375 1.75 -0.25
v -1.4375 1.75 0.25
v -1.4375 1.5 0.25
v -0.1875 1.25 0.625
v -0.1875 1 0.5
v -0.1875 1.25 0.5
v -0.1875 1.25 0.75
v -0.1875 1 1
v -0.1875 1.25 0.875
v -0.1875 1.25 1
v -0.1875 1.375 0.625
v -0.1875 1.5 0.625
v -0.1875 1.5 0.5
v -0.1875 1.375 0.875
v -0.1875 1.5 1
v -0.1875 1.5 0.875
v -0.1875 1.375 0.75
v -0.3125 1.375 -0.25
v -0.3125 1.5 -0.25
v -0.3125 1.5 0.25
v -0.3125 1.375 0.25
v -0.1875 1.375 -1.125
v -0.1875 1.25 -1.25
v -0.1875 1.375 -1.25
v -0.1875 1.375 -0.75
v -0.1875 1.25 -0.75
v -0.1875 1.5 -1.125
v -0.1875 1.5 -1.25
v -0.0625 1.25 1.25
v -0.0625 1 1.125
v -0.0625 1.25 1.125
v -0.0625 0.875 1.25
v -0.0625 0.875 1.125
v -0.0625 1 1
v -0.0625 1.25 1
v 0.1875 1.5 -0.25
v 0.1875 1.625 -0.25
v 0.1875 1.625 0.25
v 0.1875 1.5 0.25
v 1.3125 1.625 -0.25
v 1.3125 1.75 -0.25
v 1.3125 1.75 0.25
v 1.3125 1.625 0.25
v -0.1875 1 -1
v -0.1875 1.125 -1
v -0.1875 1.125 -0.75
v -0.1875 1 -0.75
v 0.0625 1 -1
v 0.0625 1.125 -1
v 0.0625 1.125 -0.75
v 0.0625 1 -0.75
v -0.1875 1.25 0.625
v -0.1875 1.375 0.625
v -0.1875 1.375 0.75
v -0.1875 1.25 0.75
v -0.1875 1.25 0.75
v -0.1875 1.375 0.75
v -0.1875 1.375 0.875
v -0.1875 1.25 0.875
v 0.1875 1.375 -0.25
v 0.1875 1 0.25
v 0.1875 1.375 0.25
v 0.1875 1.375 -0.75
v 0.1875 1 -0.75
v 0.1875 1.25 -0.75
v 0.1875 1.125 -0.75
v 0.1875 1 0.5
v 0.1875 1.25 0.5
v 0.1875 1.5 0.25
v 0.1875 1.5 0.5
v 0.1875 1.5 -0.75
v 0.1875 1.5 -0.25
v 0.1875 1.25 0.875
v 0.1875 1 1
v 0.1875 1.25 1
v 0.1875 1.25 0.75
v 0.1875 1 0.5
v 0.1875 1.25 0.625
v 0.1875 1.25 0.5
v 0.1875 1.375 0.625
v 0.1875 1.5 0.5
v 0.1875 1.5 0.625
v 0.1875 1.375 0.875
v 0.1875 1.5 0.875
v 0.1875 1.5 1
v 0.1875 1.375 0.75
v 1.4375 1.5 0.25
v 1.4375 1.75 0.25
v 1.4375 1.75 -0.25
v 1.4375 1.5 -0.25
v -1.3125 1.625 0.25
v -1.3125 1.75 0.25
v -1.3125 1.75 -0.25
v -1.3125 1.625 -0.25
v -0.1875 1.5 0.25
v -0.1875 1.625 0.25
v -0.1875 1.625 -0.25
v -0.1875 1.5 -0.25
v 0.0625 1.25 1.125
v 0.0625 0.875 1.25
v 0.0625 1.25 1.25
v 0.0625 1 1.125
v 0.0625 0.875 1.125
v 0.0625 1.25 1
v 0.0625 1 1
v 0.1875 1.375 -1.125
v 0.1875 1.25 -0.75
v 0.1875 1.375 -0.75
v 0.1875 1.375 -1.25
v 0.1875 1.25 -1.25
v 0.1875 1.5 -1.25
v 0.1875 1.5 -1.125
v 0.3125 1.375 0.25
v 0.3125 1.5 0.25
v 0.3125 1.5 -0.25
v 0.3125 1.375 -0.25
v -0.0625 1 -0.75
v -0.0625 1.125 -0.75
v -0.0625 1.125 -1
v -0.0625 1 -1
v 0.1875 1 -0.75
v 0.1875 1.125 -0.75
v 0.1875 1.125 -1
v 0.1875 1 -1
v 0.1875 1.25 0.75
v 0.1875 1.375 0.75
v 0.1875 1.375 0.625
v 0.1875 1.25 0.625
v 0.1875 1.25 0.875
v 0.1875 1.375 0.875
v 0.1875 1.375 0.75
v 0.1875 1.25 0.75
v -0.3125 1.625 -0.25
v -1.3125 1.625 0.25
v -1.3125 1.625 -0.25
v -0.3125 1.625 0.25
v -0.1875 1.625 -0.25
v -0.1875 1.625 0.25
v 0.1875 1.5 -0.75
v -0.1875 1.5 -0.25
v -0.1875 1.5 -0.75
v -0.1875 1.5 0.25
v 0.1875 1.5 -0.25
v -0.1875 1.5 0.5
v 0.1875 1.5 0.25
v 0.1875 1.5 0.5
v 0.3125 1.625 -0.25
v 0.1875 1.625 0.25
v 0.1875 1.625 -0.25
v 0.3125 1.625 0.25
v 1.3125 1.625 -0.25
v 1.3125 1.625 0.25
v -0.1875 1.375 -1.125
v 0.1875 1.375 -1.125
v -0.1875 1.375 -0.75
v 0.1875 1.375 -0.75
v 0.1875 1.5 0.5
v -0.1875 1.5 0.625
v -0.1875 1.5 0.5
v -0.1875 1.5 0.875
v 0.1875 1.5 0.625
v -0.1875 1.5 1
v 0.1875 1.5 0.875
v -0.0625 1.5 1
v 0.1875 1.5 1
v -1.4375 1.75 -0.25
v -1.3125 1.75 -0.25
v -1.4375 1.75 0.25
v -1.3125 1.75 0.25
v -0.1875 1.5 -1.25
v 0.1875 1.5 -1.25
v -0.1875 1.5 -1.125
v 0.1875 1.5 -1.125
v 1.3125 1.75 -0.25
v 1.4375 1.75 -0.25
v 1.3125 1.75 0.25
v 1.4375 1.75 0.25
v -0.1875 1.125 -1
v -0.0625 1.125 -1
v -0.1875 1.125 -0.75
v -0.0625 1.125 -0.75
v 0.0625 1.25 1
v -0.0625 1.25 1.125
v -0.0625 1.25 1
v -0.0625 1.25 1.25
v 0.0625 1.25 1.125
v 0.0625 1.25 1.25
v 0.0625 1.125 -1
v 0.1875 1.125 -1
v 0.0625 1.125 -0.75
v 0.1875 1.125 -0.75
vn -0 0 -1
vn -0 0 -1
vn -0 0 -1
vn -0 0 -1
vn -0 0 -1
vn -0 0 -1
vn -0 0 -1
vn -0 0 -1
vn -0 0 -1
vn -0 0 -1
vn -0 0 -1
vn -0 0 -1
vn -0 0 -1
vn -0 0 -1
vn -0 0 -1
vn -0 0 -1
vn -0 0 -1
vn -0 0 -1
vn -0 0 -1
vn -0 0 -1
vn -0 0 -1
vn -0 0 -1
vn -0 0 -1
vn -0 0 -1
vn -0 0 -1
vn -0 0 -1
vn -0 0 -1
vn -0 0 -1
vn -0 0 -1
vn -0 0 -1
vn -0 0 -1
vn -0 0 -1
vn -0 0 -1
vn -0 0 -1
vn -0 0 -1
vn -0 0 -1
vn -0 0 -1
vn -0 0 -1
vn -0 0 -1
vn -0 0 -1
vn -0 0 -1
vn -0 0 -1
vn -0 0 -1
vn -0 0 -1
vn -0 0 -1
vn -0 0 -1
vn -0 0 -1
vn -0 0 -1
vn -0 0 -1
vn -0 0 -1
vn -0 0 -1
vn -0 0 -1
vn -0 0 1
vn -0 0 1
vn -0 0 1
vn -0 0 1
vn -0 0 1
vn -0 0 1
vn -0 0 1
vn -0 0 1
vn -0 0 1
vn -0 0 1
vn -0 0 1
vn -0 0 1
vn -0 0 1
vn -0 0 1
vn -0 0 1
vn -0 0 1
vn -0 0 1
vn -0 0 1
vn -0 0 1
vn -0 0 1
vn -0 0 1
vn -0 0 1
vn -0 0 1
vn -0 0 1
vn -0 0 1
vn -0 0 1
vn -0 0 1
vn -0 0 1
vn -0 0 1
vn -0 0 1
vn -0 0 1
vn -0 0 1
vn -0 0 1
vn -0 0 1
vn -0 0 1
vn -0 0 1
vn -0 0 1
vn -0 0 1
vn -0 0 1
vn -0 0 1
vn -0 0 1
vn -1 0 0
vn -1 0 0
vn -1 0 0
vn -1 0 0
vn -1 0 0
vn -1 0 0
vn -1 0 0
vn -1 0 0
vn -1 0 0
vn -1 0 0
vn -1 0 0
vn -1 0 0
vn -1 0 0
vn -1 0 0
vn -1 0 0
vn -1 0 0
vn -1 0 0
vn -1 0 0
vn -1 0 0
vn -1 0 0
vn -1 0 0
vn -1 0 0
vn -1 0 0
vn -1 0 0
vn -1 0 0
vn -1 0 0
vn -1 0 0
vn -1 0 0
vn -1 0 0
vn -1 0 0
vn -1 0 0
vn -1 0 0
vn -1 0 0
vn -1 0 0
vn -1 0 0
vn -1 0 0
vn -1 0 0
vn -1 0 0
vn -1 0 0
vn -1 0 0
vn -1 0 0
vn -1 0 0
vn -1 0 0
vn -1 0 0
vn -1 0 0
vn -1 0 0
vn -1 0 0
vn -1 0 0
vn -1 0 0
vn -1 0 0
vn -1 0 0
vn -1 0 0
vn -1 0 0
vn -1 0 0
vn -1 0 0
vn -1 0 0
vn -1 0 0
vn -1 0 0
vn -1 0 0
vn -1 0 0
vn -1 0 0
vn -1 0 0
vn -1 0 0
vn -1 0 0
vn -1 0 0
vn -1 0 0
vn -1 0 0
vn -1 0 0
vn -1 0 0
vn -1 0 0
vn -1 0 0
vn -1 0 0
vn -1 0 0
vn 1 0 0
vn 1 0 0
vn 1 0 0
vn 1 0 0
vn 1 0 0
vn 1 0 0
vn 1 0 0
vn 1 0 0
vn 1 0 0
vn 1 0 0
vn 1 0 0
vn 1 0 0
vn 1 0 0
vn 1 0 0
vn 1 0 0
vn 1 0 0
vn 1 0 0
vn 1 0 0
vn 1 0 0
vn 1 0 0
vn 1 0 0
vn 1 0 0
vn 1 0 0
vn 1 0 0
vn 1 0 0
vn 1 0 0
vn 1 0 0
vn 1 0 0
vn 1 0 0
vn 1 0 0
vn 1 0 0
vn 1 0 0
vn 1 0 0
vn 1 0 0
vn 1 0 0
vn 1 0 0
vn 1 0 0
vn 1 0 0
vn 1 0 0
vn 1 0 0
vn 1 0 0
vn 1 0 0
vn 1 0 0
vn 1 0 0
vn 1 0 0
vn 1 0 0
vn 1 0 0
vn 1 0 0
vn 1 0 0
vn 1 0 0
vn 1 0 0
vn 1 0 0
vn 1 0 0
vn 1 0 0
vn 1 0 0
vn 1 0 0
vn 1 0 0
vn 1 0 0
vn 1 0 0
vn 1 0 0
vn 1 0 0
vn 1 0 0
vn 1 0 0
vn 1 0 0
vn 1 0 0
vn 1 0 0
vn 1 0 0
vn 1 0 0
vn 1 0 0
vn 1 0 0
vn 1 0 0
vn 1 0 0
vn 1 0 0
vn -0 1 0
vn -0 1 0
vn -0 1 0
vn -0 1 0
vn -0 1 0
vn -0 1 0
vn -0 1 0
vn -0 1 0
vn -0 1 0
vn -0 1 0
vn -0 1 0
vn -0 1 0
vn -0 1 0
vn -0 1 0
vn -0 1 0
vn -0 1 0
vn -0 1 0
vn -0 1 0
vn -0 1 0
vn -0 1 0
vn -0 1 0
vn -0 1 0
vn -0 1 0
vn -0 1 0
vn -0 1 0
vn -0 1 0
vn -0 1 0
vn -0 1 0
vn -0 1 0
vn -0 1 0
vn -0 1 0
vn -0 1 0
vn -0 1 0
vn -0 1 0
vn -0 1 0
vn -0 1 0
vn -0 1 0
vn -0 1 0
vn -0 1 0
vn -0 1 0
vn -0 1 0
vn -0 1 0
vn -0 1 0
vn -0 1 0
vn -0 1 0
vn -0 1 0
vn -0 1 0
vn -0 1 0
vn -0 1 0
vn -0 1 0
vn -0 1 0
vn -0 1 0
vn -0 1 0
vn -0 1 0
vn -0 1 0
vn -0 1 0
vn -0 1 0
vn -0 1 0
vn -0 1 0
g eagle_2_optimised_0
f 3/3/3 2/2/2 1/1/1
f 4/4/4 3/3/3 1/1/1
f 3/3/3 4/4/4 5/5/5
f 5/5/5 6/6/6 3/3/3
f 7/7/7 3/3/3 6/6/6
f 1/1/1 2/2/2 8/8/8
f 9/9/9 8/8/8 2/2/2
f 8/8/8 10/10/10 1/1/1
f 11/11/11 1/1/1 10/10/10
f 14/14/14 13/13/13 12/12/12
f 15/15/15 12/12/12 13/13/13
f 13/13/13 16/16/16 15/15/15
f 17/17/17 15/15/15 16/16/16
f 20/20/20 19/19/19 18/18/18
f 21/21/21 20/20/20 18/18/18
f 20/20/20 21/21/21 22/22/22
f 23/23/23 22/22/22 21/21/21
f 21/21/21 24/24/24 23/23/23
f 25/25/25 23/23/23 24/24/24
f 26/26/26 18/18/18 19/19/19
f 19/19/19 27/27/27 26/26/26
f 28/28/28 26/26/26 27/27/27
f 31/31/31 30/30/30 29/29/29
f 32/32/32 29/29/29 30/30/30
f 30/30/30 33/33/33 32/32/32
f 34/34/34 32/32/32 33/33/33
f 34/34/34 33/33/33 35/35/35
f 36/36/36 34/34/34 35/35/35
f 39/39/39 38/38/38 37/37/37
f 40/40/40 39/39/39 37/37/37
f 43/43/43 42/42/42 41/41/41
f 44/44/44 43/43/43 41/41/41
f 47/47/47 46/46/46 45/45/45
f 48/48/48 47/47/47 45/45/45
f 51/51/51 50/50/50 49/49/49
f 52/52/52 51/51/51 49/49/49
f 55/55/55 54/54/54 53/53/53
f 56/56/56 55/55/55 53/53/53
f 57/57/57 53/53/53 54/54/54
f 54/54/54 58/58/58 57/57/57
f 59/59/59 57/57/57 58/58/58
f 55/55/55 56/56/56 60/60/60
f 61/61/61 60/60/60 56/56/56
f 56/56/56 62/62/62 61/61/61
f 63/63/63 61/61/61 62/62/62
f 66/66/66 65/65/65 64/64/64
f 67/67/67 66/66/66 64/64/64
f 64/64/64 65/65/65 68/68/68
f 69/69/69 68/68/68 65/65/65
f 68/68/68 70/70/70 64/64/64
f 71/71/71 64/64/64 70/70/70
f 66/66/66 67/67/67 72/72/72
f 72/72/72 73/73/73 66/66/66
f 74/74/74 66/66/66 73/73/73
f 77/77/77 76/76/76 75/75/75
f 78/78/78 75/75/75 76/76/76
f 76/76/76 79/79/79 78/78/78
f 80/80/80 78/78/78 79/79/79
f 75/75/75 78/78/78 81/81/81
f 82/82/82 81/81/81 78/78/78
f 78/78/78 83/83/83 82/82/82
f 82/82/82 83/83/83 84/84/84
f 85/85/85 82/82/82 84/84/84
f 88/88/88 87/87/87 86/86/86
f 89/89/89 88/88/88 86/86/86
f 92/92/92 91/91/91 90/90/90
f 93/93/93 92/92/92 90/90/90
f 96/96/96 95/95/95 94/94/94
f 97/97/97 94/94/94 95/95/95
f 95/95/95 98/98/98 97/97/97
f 99/99/99 97/97/97 98/98/98
f 98/98/98 100/100/100 99/99/99
f 97/97/97 99/99/99 101/101/101
f 101/101/101 102/102/102 97/97/97
f 103/103/103 97/97/97 102/102/102
f 104/104/104 101/101/101 99/99/99
f 94/94/94 105/105/105 96/96/96
f 105/105/105 106/106/106 96/96/96
f 109/109/109 108/108/108 107/107/107
f 110/110/110 109/109/109 107/107/107
f 113/113/113 112/112/112 111/111/111
f 114/114/114 111/111/111 112/112/112
f 112/112/112 115/115/115 114/114/114
f 116/116/116 114/114/114 115/115/115
f 115/115/115 117/117/117 116/116/116
f 113/113/113 111/111/111 118/118/118
f 118/118/118 119/119/119 113/113/113
f 120/120/120 113/113/113 119/119/119
f 121/121/121 116/116/116 117/117/117
f 117/117/117 122/122/122 121/121/121
f 123/123/123 121/121/121 122/122/122
f 119/119/119 118/118/118 123/123/123
f 121/121/121 123/123/123 118/118/118
f 118/118/118 124/124/124 121/121/121
f 127/127/127 126/126/126 125/125/125
f 128/128/128 127/127/127 125/125/125
f 131/131/131 130/130/130 129/129/129
f 132/132/132 129/129/129 130/130/130
f 130/130/130 133/133/133 132/132/132
f 129/129/129 134/134/134 131/131/131
f 134/134/134 135/135/135 131/131/131
f 138/138/138 137/137/137 136/136/136
f 139/139/139 136/136/136 137/137/137
f 137/137/137 140/140/140 139/139/139
f 137/137/137 138/138/138 141/141/141
f 138/138/138 142/142/142 141/141/141
f 145/145/145 144/144/144 143/143/143
f 146/146/146 145/145/145 143/143/143
f 149/149/149 148/148/148 147/147/147
f 150/150/150 149/149/149 147/147/147
f 153/153/153 152/152/152 151/151/151
f 154/154/154 153/153/153 151/151/151
f 157/157/157 156/156/156 155/155/155
f 158/158/158 157/157/157 155/155/155
f 161/161/161 160/160/160 159/159/159
f 162/162/162 161/161/161 159/159/159
f 165/165/165 164/164/164 163/163/163
f 166/166/166 165/165/165 163/163/163
f 169/169/169 168/168/168 167/167/167
f 170/170/170 167/167/167 168/168/168
f 168/168/168 171/171/171 170/170/170
f 172/172/172 170/170/170 171/171/171
f 171/171/171 173/173/173 172/172/172
f 168/168/168 169/169/169 174/174/174
f 175/175/175 174/174/174 169/169/169
f 169/169/169 176/176/176 175/175/175
f 177/177/177 175/175/175 176/176/176
f 170/170/170 178/178/178 167/167/167
f 178/178/178 179/179/179 167/167/167
f 182/182/182 181/181/181 180/180/180
f 183/183/183 180/180/180 181/181/181
f 181/181/181 184/184/184 183/183/183
f 185/185/185 183/183/183 184/184/184
f 184/184/184 186/186/186 185/185/185
f 187/187/187 185/185/185 186/186/186
f 186/186/186 188/188/188 187/187/187
f 189/189/189 187/187/187 188/188/188
f 182/182/182 180/180/180 190/190/190
f 187/187/187 189/189/189 190/190/190
f 190/190/190 191/191/191 182/182/182
f 191/191/191 190/190/190 189/189/189
f 192/192/192 182/182/182 191/191/191
f 190/190/190 193/193/193 187/187/187
f 196/196/196 195/195/195 194/194/194
f 197/197/197 196/196/196 194/194/194
f 200/200/200 199/199/199 198/198/198
f 201/201/201 200/200/200 198/198/198
f 204/204/204 203/203/203 202/202/202
f 205/205/205 204/204/204 202/202/202
f 208/208/208 207/207/207 206/206/206
f 209/209/209 206/206/206 207/207/207
f 207/207/207 210/210/210 209/209/209
f 211/211/211 206/206/206 209/209/209
f 212/212/212 211/211/211 209/209/209
f 215/215/215 214/214/214 213/213/213
f 216/216/216 213/213/213 214/214/214
f 214/214/214 217/217/217 216/216/216
f 216/216/216 218/218/218 213/213/213
f 218/218/218 219/219/219 213/213/213
f 222/222/222 221/221/221 220/220/220
f 223/223/223 222/222/222 220/220/220
f 226/226/226 225/225/225 224/224/224
f 227/227/227 226/226/226 224/224/224
f 230/230/230 229/229/229 228/228/228
f 231/231/231 230/230/230 228/228/228
f 234/234/234 233/233/233 232/232/232
f 235/235/235 234/234/234 232/232/232
f 238/238/238 237/237/237 236/236/236
f 239/239/239 238/238/238 236/236/236
f 242/242/242 241/241/241 240/240/240
f 243/243/243 240/240/240 241/241/241
f 240/240/240 243/243/243 244/244/244
f 245/245/245 244/244/244 243/243/243
f 248/248/248 247/247/247 246/246/246
f 249/249/249 246/246/246 247/247/247
f 246/246/246 249/249/249 250/250/250
f 251/251/251 250/250/250 249/249/249
f 250/250/250 251/251/251 252/252/252
f 253/253/253 252/252/252 251/251/251
f 256/256/256 255/255/255 254/254/254
f 257/257/257 254/254/254 255/255/255
f 254/254/254 257/257/257 258/258/258
f 259/259/259 258/258/258 257/257/257
f 262/262/262 261/261/261 260/260/260
f 263/263/263 261/261/261 262/262/262
f 266/266/266 265/265/265 264/264/264
f 267/267/267 264/264/264 265/265/265
f 264/264/264 267/267/267 268/268/268
f 269/269/269 268/268/268 267/267/267
f 268/268/268 269/269/269 270/270/270
f 271/271/271 270/270/270 269/269/269
f 270/270/270 271/271/271 272/272/272
f 275/275/275 274/274/274 273/273/273
f 276/276/276 274/274/274 275/275/275
f 279/279/279 278/278/278 277/277/277
f 280/280/280 278/278/278 279/279/279
f 283/283/283 282/282/282 281/281/281
f 284/284/284 282/282/282 283/283/283
f 287/287/287 286/286/286 285/285/285
f 288/288/288 286/286/286 287/287/287
f 291/291/291 290/290/290 289/289/289
f 292/292/292 289/289/289 290/290/290
f 289/289/289 292/292/292 293/293/293
f 294/294/294 293/293/293 292/292/292
f 297/297/297 296/296/296 295/295/295
f 298/298/298 296/296/296 297/297/297
